<svg xmlns="http://www.w3.org/2000/svg" xmlns:xlink="http://www.w3.org/1999/xlink" fill="none" version="1.1" width="82.5" height="21" viewBox="0 0 82.5 21"><defs><linearGradient x1="0" y1="0.5" x2="1" y2="0.5" id="master_svg0_71_03956"><stop offset="4.285717755556107%" stop-color="#FF663F" stop-opacity="1"/><stop offset="100%" stop-color="#EA702A" stop-opacity="0"/></linearGradient></defs><g><g><g><g><g><path d="M58,17C64.69211,19.502200000000002,72.1889,18.529,78.0204,14.40123L80,13L77,7L76.98910000000001,7.00842002C71.7457,11.064,64.94957,12.5312,58.5,11L58,17Z" fill="url(#master_svg0_71_03956)" fill-opacity="1"/></g><g><path d="M71,7L71.189913,8.51931C71.396438,10.1715,71.5,11.83494,71.5,13.5L72.82384,12.889C76.26331,11.301549999999999,79.50982,9.32569,82.5,7C80.83521,6.00113,79.23942,4.89154,77.7234,3.678717L77.5,3.5L77.48,3.53C76.21212,5.43183,74.18298,6.64634,71.91125,6.89875L71,7Z" fill="#7AC6B6" fill-opacity="1"/></g></g><g><path d="M8.32961,5.35298L9.11873,5.70598L9.63854,4.16499L8.48618,4.16499L8.75548,2.19633L10.3149,2.19633L10.5028,1.66003L10.0081,1.02192L13.6405,1.02192L13.2397,2.19633L16.7782,2.19633L15.8889,8.89657L16.2584,8.89657L17.1039,8.10911L16.6843,11.2725L12.6698,11.2725L13.5841,4.16499L12.557,4.16499L11.6614,6.79893L12.8201,7.32164L12.5195,9.69082L10.9099,8.97803L10.1208,11.2725L7.19603,11.2725L8.36718,7.85793L8.02273,7.71537L8.32961,5.35298ZM1.34652,11.2725L3.06254,9.32425L3.17527,8.38064L1.32773,8.71328L1.59703,6.53417L3.46336,6.18117L3.71388,4.35507L1.88512,4.35507L2.13564,2.37961L3.96439,2.37961L4.15854,1.02192L7.0833,1.02192L6.90794,2.37961L8.34839,2.37961L8.09788,4.35507L6.63863,4.35507L6.48206,5.61773L7.96636,5.35298L7.69706,7.53208L6.19397,7.82399L5.92467,9.86054Q5.83072,10.4647,5.39859,10.872Q4.96645,11.2725,4.42784,11.2725L1.34652,11.2725ZM5.11676,15.8616L4.92887,11.9378L8.21687,11.9378L8.41102,15.8616L5.11676,15.8616ZM9.11873,15.8616L8.92458,11.9378L12.2188,11.9378L12.413,15.8616L9.11873,15.8616ZM0,15.8616L1.25257,11.9378L4.54057,11.9378L3.288,15.8616L0,15.8616ZM13.1207,15.8616L12.9328,11.9378L16.2208,11.9378L16.415,15.8616L13.1207,15.8616ZM34.5334,1.70755L32.8612,14.6193Q32.7798,15.2234,32.3539,15.6172Q31.9343,16.0041,31.3769,16.0041L27.9324,16.0041L29.6484,14.049L30.9761,3.68301L23.492,3.68301L23.7613,1.70755L34.5334,1.70755ZM22.8344,4.55193L21.3564,16.0041L18.0621,16.0041L19.5464,4.55193L22.8344,4.55193ZM23.0661,1.30703L23.0661,4.11747L19.7969,4.11747L19.7781,1.30703L23.0661,1.30703ZM45.7064,2.73262L47.3785,2.73262L47.5,1.50558L47,1.00478L51,0.00537445L50.4599,2.73262L52.8022,2.73262L52.5517,4.70807L50.2094,4.70807L49.9776,6.47987L51.8815,6.47987L51.631,8.46211L49.7271,8.46211L49.5142,9.95558L51.4181,9.95558L51.1488,11.9378L49.2449,11.9378L49.0319,13.6757L56,13.6758L56.5,15.6103L44.0279,15.6308L43.9903,15.9702L41,16.9941L42.4747,4.49762L41.8547,4.70807L42.1616,2.32531L45.9381,0.994761L45.7064,2.73262ZM37.7024,3.68301L37.9717,1.66003L37.4895,1.03549L41.2785,1.03549L40.9341,3.68301L41.5666,3.68301L41.3349,5.54305L40.6835,5.54305L40.3955,7.89866L40.8965,7.72895L40.6084,9.86732L40.1261,10.037L39.5312,14.6261Q39.431,15.2234,39.0051,15.6104Q38.5855,15.9905,38.0469,15.9905L35.0658,15.9905L36.3559,14.083L36.7379,11.0417L35.6419,11.4151L35.93,9.24957L37.0072,8.89657L37.4519,5.54305L36.4311,5.54305L36.6628,3.68301L37.7024,3.68301ZM44.2784,13.6757L45.9757,13.6757L46.1886,11.9378L44.4914,11.9378L44.2784,13.6757ZM44.7607,9.95558L46.4329,9.95558L46.6458,8.46211L44.9736,8.46211L44.7607,9.95558ZM45.2241,6.47987L46.9151,6.47987L47.128,4.70807L45.4558,4.70807L45.2241,6.47987ZM61.0692,5.17647L69.3988,5.17647L69.1295,7.15872L59.7039,7.15872L58.3949,9.04592L57.493,15.6308L53.9546,15.6308L54.6059,10.9331L53.1466,10.9331L55.7583,7.15872L54.1612,7.15872L54.4305,5.17647L57.1486,5.17647L57.4931,4.67413L61.4199,4.67413L61.0692,5.17647ZM62.2278,10.9671L62.2654,10.7023L64.8018,9.34461L60.0483,9.34461L60.28,7.59318L68.7286,7.59318L68.4406,9.79265L65.9792,10.9671L69.1921,10.9671L68.9604,12.8475L65.4782,12.8475L65.2465,14.6396Q65.1713,15.2234,64.7329,15.6104Q64.3008,15.9973,63.7434,15.9973L60.1297,15.9973L61.8207,14.1169L61.9773,12.8475L58.7206,12.8475L58.9523,10.9671L62.2278,10.9671ZM57.1486,3.71016L54.4117,3.71016L54.6435,1.918L57.3741,1.918L57.3929,1.81617L56.7791,1.02192L60.7999,1.02192L60.6871,1.918L63.9751,1.918L63.9939,1.81617L63.3802,1.02192L67.4009,1.02192L67.2882,1.918L70,1.918L69.7683,3.71016L67.0377,3.71016L66.975,4.19214L63.687,4.19214L63.7434,3.71016L60.4366,3.71016L60.3802,4.19214L57.086,4.19214L57.1486,3.71016Z" fill="#1A1A1A" fill-opacity="1"/></g></g></g></g></svg>