<svg xmlns="http://www.w3.org/2000/svg" xmlns:xlink="http://www.w3.org/1999/xlink" fill="none" version="1.1" width="83.5" height="21.03125" viewBox="0 0 83.5 21.03125"><defs><linearGradient x1="0" y1="0.5" x2="1" y2="0.5" id="master_svg0_71_03956"><stop offset="4.285717755556107%" stop-color="#FF663F" stop-opacity="1"/><stop offset="100%" stop-color="#EA702A" stop-opacity="0"/></linearGradient></defs><g><g><g><g><g><path d="M59,17.03125C65.69211,19.533450000000002,73.1889,18.56025,79.0204,14.43248L81,13.03125L78,7.03125L77.98910000000001,7.03967002C72.7457,11.09525,65.94957,12.56245,59.5,11.03125L59,17.03125Z" fill="url(#master_svg0_71_03956)" fill-opacity="1"/></g><g><path d="M72,7.03125L72.189913,8.55056C72.396438,10.20275,72.5,11.86619,72.5,13.53125L73.82384,12.92025C77.26331,11.332799999999999,80.50982,9.35694,83.5,7.03125C81.83521,6.03238,80.23942,4.92279,78.7234,3.709967L78.5,3.53125L78.48,3.56125C77.21212,5.46308,75.18298,6.67759,72.91125,6.93L72,7.03125Z" fill="#7AC6B6" fill-opacity="1"/></g></g><g><path d="M6.68489,4.77457L7.10344,4.1862L4.46058,4.1862L4.64594,2.61046L8.22756,2.61046L8.74178,1.9477L4.36491,2.05591L4.56821,0.473399L20.3237,0L19.08,1.6569L12.9991,1.82597L12.4131,2.61046L18.6017,2.61046L18.4223,4.1862L11.295,4.1862L10.8704,4.77457L18.6974,4.77457L18.4941,6.35708L9.75229,6.35708L9.32775,6.93868L17.8842,6.93868L16.8796,14.9729L5.28391,14.9729C4.68189,14.9729,4.21635,14.4449,4.29179,13.8476L4.78944,9.90757L2.5,12L0,12L5.56078,6.35708L3.83275,6.35708L4.03605,4.77457L6.68489,4.77457ZM13.9378,13.431L14.0275,12.6398L7.58179,12.6398L7.4921,13.431L13.9378,13.431ZM7.74921,11.2669L14.1949,11.2669L14.2846,10.4959L7.8389,10.4959L7.74921,11.2669ZM8.00632,9.10279L14.452,9.10279L14.5417,8.51443L8.09601,8.51443L8.00632,9.10279ZM31.6785,6.72227L29.9146,1.98828L27.2657,1.98828L24.3478,6.72227L20.3237,6.72227L24.1625,0.513977L23.7977,0.0135257L33.2032,0.0135257L35.6787,6.72227L31.6785,6.72227ZM30.0043,4.77457L28.8202,15.1138C28.7624,15.6187,28.335,16,27.8267,16L25.2268,16L26.5123,4.77457L30.0043,4.77457ZM52.4268,5.70108L48.8451,6.39766L48.0738,12.5654L51.213,12.5654L52.0202,11.7809L51.6195,14.8918L44.2889,14.8918L46.0528,0.78449L45.4668,0L49.6523,0L49.1202,4.2606L52.7018,3.5505L52.4268,5.70108ZM41.7716,4.34175L44.9107,4.34175L44.6716,6.3165L41.5324,6.3165L40.7431,12.5451L43.9421,12.1731L43.7029,14.1411L36.9582,14.8918L38.7221,0.757439L38.1362,0L42.3217,0L41.7716,4.34175ZM58.3702,4.77457L58.442,4.34175L55.6317,4.34175L55.6915,3.94274L54.956,3.94274L55.3387,0.78449L60.9234,0.78449L60.9593,0.601894L60.5228,0.0405771L64.5229,0.0405771L64.4153,0.78449L70,0.78449L69.6113,3.94274L68.8938,3.94274L68.84,4.34175L66.0118,4.34175L65.94,4.77457L68.0328,4.77457L67.8833,6.00541L65.7906,6.00541L65.7367,6.4991L69.2466,6.4991L69.0792,7.95987L67.1359,7.95987L69.1749,10.4689L67.393,10.4689L67.1359,12.5586L64.8757,12.5586L64.212,12.2272L64.4691,10.1849L58.7409,10.1849L58.4838,12.2475L57.7484,12.5789L55.4702,12.5789L55.7273,10.4689L53.7781,10.4689L56.403,7.95987L54.4777,7.95987L54.6451,6.4991L58.1669,6.4991L58.2267,6.00541L56.1698,6.00541L56.3133,4.77457L58.3702,4.77457ZM63.3151,10.6109L63.1118,12.1867L68.9855,15L63.913,15L61.1087,13.6001L57.8261,15L53.2609,15L59.6378,12.0784L59.8232,10.6109L63.3151,10.6109ZM66.233,2.55636L66.1792,2.96889L67.0223,2.96889L67.1359,2.17764L57.8739,2.17764L57.7663,2.96889L58.6094,2.96889L58.6632,2.55636L61.7904,2.55636L61.7306,2.96889L63.0759,2.96889L63.1298,2.55636L66.233,2.55636ZM58.3343,8.66997L65.0372,8.66997L64.4512,7.95987L59.1057,7.95987L58.3343,8.66997ZM61.4914,4.77457L62.8368,4.77457L62.9085,4.34175L61.5691,4.34175L61.4914,4.77457ZM61.2941,6.4991L62.6335,6.4991L62.6873,6.00541L61.3479,6.00541L61.2941,6.4991Z" fill="#1A1A1A" fill-opacity="1"/></g></g></g></g></svg>