<svg xmlns="http://www.w3.org/2000/svg" xmlns:xlink="http://www.w3.org/1999/xlink" fill="none" version="1.1" width="335.00003235041163" height="30.00035987531419" viewBox="0 0 335.00003235041163 30.00035987531419"><defs><clipPath id="master_svg0_10134_59561"><rect x="0" y="0.00035987531418868457" width="335" height="30" rx="0"/></clipPath><linearGradient x1="1" y1="0.5000001192092896" x2="-1.6399877011963326e-8" y2="0.49999868869781494" id="master_svg1_71_04279"><stop offset="2.142857201397419%" stop-color="#FFE9DB" stop-opacity="1"/><stop offset="99.28571581840515%" stop-color="#FAF0F0" stop-opacity="1"/></linearGradient><linearGradient x1="1" y1="0.5" x2="0" y2="0.5" id="master_svg2_71_04219"><stop offset="4.285692423582077%" stop-color="#FF663F" stop-opacity="1"/><stop offset="99.28568005561829%" stop-color="#EA702A" stop-opacity="1"/></linearGradient><linearGradient x1="1" y1="0.5" x2="0" y2="0.5" id="master_svg3_71_04219"><stop offset="4.285692423582077%" stop-color="#FF663F" stop-opacity="1"/><stop offset="99.28568005561829%" stop-color="#EA702A" stop-opacity="1"/></linearGradient><linearGradient x1="1" y1="0.5" x2="0" y2="0.5" id="master_svg4_71_04219"><stop offset="4.285692423582077%" stop-color="#FF663F" stop-opacity="1"/><stop offset="99.28568005561829%" stop-color="#EA702A" stop-opacity="1"/></linearGradient></defs><g transform="matrix(1,-0.000001074254669219954,0.000001078347054317419,1,-3.8807048497692365e-10,0)" clip-path="url(#master_svg0_10134_59561)"><g><rect x="0" y="0.00035987531418868457" width="335" height="30" rx="0" fill="url(#master_svg1_71_04279)" fill-opacity="1"/></g><g style="opacity:0.30000001192092896;"><path d="M162.43229,23.00035987531419L162.43229,20.25035987531419L169.14258,20.25035987531419Q170.74675,20.25035987531419,171.2767,19.97105987531419Q172.043,19.55565987531419,172.043,18.717759875314187Q172.043,17.73665987531419,171.1406,17.29985987531419Q170.63216,17.042059875314187,169.51497,17.042059875314187L166.78646,17.042059875314187Q164.29427,17.042059875314187,163.19857,16.11105987531419Q162.51823,15.52379987531419,162.13151,14.64293987531419Q161.744792,13.754919875314188,161.744792,12.730829875314189Q161.744792,11.14814987531419,162.64714,9.83043987531419Q163.52799,8.562859875314189,165.46875,8.333689875314189Q166.1276,8.333689875314189,167.42383,8.333689875314189L174.707,8.333689875314189L174.707,11.083689875314189L168.12565,11.083689875314189Q166.65755,11.105179875314189,166.17057,11.21259987531419Q165.18229,11.448929875314189,165.18229,12.666379875314188Q165.18229,13.69045987531419,166.02018,14.034209875314188Q166.57161,14.292029875314189,167.86784,14.292029875314189L170.22396,14.292029875314189Q172.0215,14.292029875314189,172.9023,14.599969875314189Q174.4707,15.137079875314189,175.0579,16.46915987531419Q175.5234,17.53615987531419,175.5234,18.76075987531419Q175.5234,20.11425987531419,174.9076,21.181359875314186Q174.0482,22.69245987531419,172.3294,23.00035987531419Q171.4915,23.00035987531419,169.80143,23.00035987531419L162.43229,23.00035987531419ZM188.6217,8.333689875314189L188.6217,11.083689875314189L184.554,11.083689875314189Q182.9642,11.083689875314189,182.2409,11.291379875314188Q181.51760000000002,11.49189987531419,181.0306,12.08629987531419Q180.7012,12.494499875314188,180.5794,12.902699875314187Q180.4577,13.310909875314188,180.3717,14.292029875314189L188.6217,14.292029875314189L188.6217,17.042059875314187L180.3717,17.042059875314187Q180.5436,18.846759875314188,181.4889,19.54855987531419Q182.4414,20.25035987531419,184.7044,20.25035987531419L188.6217,20.25035987531419L188.6217,23.00035987531419L184.554,23.00035987531419Q182.8997,23.00035987531419,181.6465,22.799859875314187Q179.66989999999998,22.470459875314187,178.5026,21.06675987531419Q176.8268,19.04005987531419,176.8268,15.588249875314188Q176.8268,11.76402987531419,179.1829,9.629919875314188Q179.9993,8.906609875314189,180.9089,8.620149875314189Q181.8255,8.333689875314189,183.36520000000002,8.333689875314189L188.6217,8.333689875314189ZM190.7344,8.333689875314189L193.8353,8.333689875314189L193.8353,16.49055987531419Q193.9069,18.030259875314187,193.97140000000002,18.531559875314187Q194.1217,19.534259875314188,194.9382,19.89225987531419Q195.7546,20.25035987531419,197.7956,20.25035987531419L200.7891,20.25035987531419L200.7891,23.00035987531419L197.46609999999998,23.00035987531419Q195.1172,23.00035987531419,194.0573,22.735359875314188Q191.6367,22.03355987531419,190.9779,19.65595987531419Q190.7344,18.73215987531419,190.7344,16.57655987531419L190.7344,8.333689875314189ZM213.83010000000002,8.333689875314189L213.83010000000002,11.083689875314189L209.7624,11.083689875314189Q208.1725,11.083689875314189,207.4492,11.291379875314188Q206.7259,11.49189987531419,206.2389,12.08629987531419Q205.9095,12.494499875314188,205.7878,12.902699875314187Q205.666,13.310909875314188,205.58010000000002,14.292029875314189L213.83010000000002,14.292029875314189L213.83010000000002,17.042059875314187L205.58010000000002,17.042059875314187Q205.752,18.846759875314188,206.69729999999998,19.54855987531419Q207.6497,20.25035987531419,209.9128,20.25035987531419L213.83010000000002,20.25035987531419L213.83010000000002,23.00035987531419L209.7624,23.00035987531419Q208.1081,23.00035987531419,206.8548,22.799859875314187Q204.8783,22.470459875314187,203.7109,21.06675987531419Q202.0352,19.04005987531419,202.0352,15.588249875314188Q202.0352,11.76402987531419,204.3913,9.629919875314188Q205.2077,8.906609875314189,206.1172,8.620149875314189Q207.03390000000002,8.333689875314189,208.5736,8.333689875314189L213.83010000000002,8.333689875314189ZM227.2721,20.25035987531419L227.2721,23.00035987531419L222.1517,23.00035987531419Q220.6979,23.00035987531419,219.9245,23.00035987531419Q217.2246,22.470459875314187,216.0788,19.95675987531419Q215.3268,18.26665987531419,215.3268,15.781609875314189Q215.3268,12.802439875314189,216.4727,10.933299875314189Q217.3106,9.579789875314189,218.707,8.956739875314188Q220.1035,8.333689875314189,222.3021,8.333689875314189L227.2721,8.333689875314189L227.2721,11.083689875314189L222.653,11.083689875314189Q220.5619,11.083689875314189,219.5951,12.172239875314188Q218.7858,13.067419875314188,218.7858,15.423539875314189Q218.7858,18.58175987531419,220.0391,19.570059875314186Q220.91989999999998,20.25035987531419,222.7891,20.25035987531419L227.2721,20.25035987531419ZM232.6719,11.083689875314189L228.0026,11.083689875314189L228.0026,8.333689875314189L240.6569,8.333689875314189L240.6569,11.083689875314189L235.79430000000002,11.083689875314189L235.79430000000002,23.00035987531419L232.6719,23.00035987531419L232.6719,11.083689875314189ZM253.2467,8.333689875314189L253.2467,11.083689875314189L249.179,11.083689875314189Q247.5892,11.083689875314189,246.8659,11.291379875314188Q246.14260000000002,11.49189987531419,245.6556,12.08629987531419Q245.3262,12.494499875314188,245.20440000000002,12.902699875314187Q245.0827,13.310909875314188,244.9967,14.292029875314189L253.2467,14.292029875314189L253.2467,17.042059875314187L244.9967,17.042059875314187Q245.1686,18.846759875314188,246.1139,19.54855987531419Q247.0664,20.25035987531419,249.32940000000002,20.25035987531419L253.2467,20.25035987531419L253.2467,23.00035987531419L249.179,23.00035987531419Q247.5247,23.00035987531419,246.2715,22.799859875314187Q244.29489999999998,22.470459875314187,243.1276,21.06675987531419Q241.4518,19.04005987531419,241.4518,15.588249875314188Q241.4518,11.76402987531419,243.808,9.629919875314188Q244.62439999999998,8.906609875314189,245.53390000000002,8.620149875314189Q246.4505,8.333689875314189,247.99020000000002,8.333689875314189L253.2467,8.333689875314189ZM255.5384,8.333689875314189L261.762,8.333689875314189Q264.096,8.333689875314189,265.371,8.792029875314189Q267.727,9.651399875314189,268.515,11.943069875314189Q269.109,13.697629875314188,269.109,15.702829875314189Q269.109,17.67935987531419,268.536,19.441159875314188Q267.964,21.23865987531419,266.646,22.09805987531419Q265.808,22.62795987531419,264.805,22.81415987531419Q263.81,23.00035987531419,261.762,23.00035987531419L255.5384,23.00035987531419L255.5384,8.333689875314189ZM258.6608,11.083689875314189L258.6608,20.25035987531419L261.762,20.25035987531419Q263.81,20.25035987531419,264.598,19.37665987531419Q265.085,18.81805987531419,265.378,17.81545987531419Q265.679,16.81285987531419,265.679,15.67418987531419Q265.679,14.41376987531419,265.328,13.36819987531419Q264.977,12.322629875314188,264.404,11.806999875314188Q263.56600000000003,11.083689875314189,261.762,11.083689875314189L258.6608,11.083689875314189Z" fill="#FFFFFF" fill-opacity="1"/></g><g><g><g><g><ellipse cx="21.753846168518066" cy="14.999993664376689" rx="7.753846168518066" ry="8" fill="url(#master_svg2_71_04219)" fill-opacity="1"/></g><g><path d="M19.091901740234373,10.555535656564189C20.418288740234374,10.555535656564189,23.089438740234375,10.555535656564189,24.415828740234375,10.555535656564189C24.844058740234374,10.555535656564189,25.200018740234377,10.917381656564189,25.200018740234377,11.345614656564189C25.200018740234377,12.882135656564188,25.200018740234377,16.28559565656419,25.200018740234377,18.154185656564188C25.200018740234377,18.73487565656419,24.589208740234376,19.12932565656419,24.073148740234373,18.863105656564187C23.391448740234374,18.51143565656419,22.567748740234375,18.08651565656419,22.108138740234374,17.849405656564187C21.885108740234376,17.73435565656419,21.622618740234376,17.73435565656419,21.399588740234375,17.849405656564187C20.939968740234374,18.08651565656419,20.116278740234375,18.51143565656419,19.434578740234375,18.863105656564187C18.918515740234376,19.12932565656419,18.307708740234375,18.73487565656419,18.307708740234375,18.154185656564188C18.307708740234375,16.28559565656419,18.307708740234375,12.882135656564188,18.307708740234375,11.345614656564189C18.307708740234375,10.917381656564189,18.663668740234375,10.555535656564189,19.091901740234373,10.555535656564189" fill="#FFFFFF" fill-opacity="1"/></g><g><ellipse cx="21.75298047065735" cy="14.11003969346757" rx="0.8606770038604736" ry="0.8880001306533813" fill="url(#master_svg3_71_04219)" fill-opacity="1"/></g></g><g><g><path d="M45.826692337036135,22.11184781691308L46.73319233703613,20.98754781691308L46.82759233703614,20.26004781691308L43.54169233703613,20.26004781691308L43.28987233703613,22.11184781691308L40.72158233703613,22.11184781691308L41.74764233703613,14.68477781691308L50.195292337036136,14.68477781691308L49.345492337036134,20.81564781691308Q49.26999233703613,21.38434781691308,48.97409233703613,21.748147816913082Q48.684592337036136,22.11184781691308,48.14319233703613,22.11184781691308L45.826692337036135,22.11184781691308ZM45.01469233703613,10.65045781691308L45.09019233703613,10.06183781691308L41.99313233703613,10.06183781691308L42.18827233703613,8.49440781691308L45.266492337036134,8.49440781691308L44.762892337036135,7.707383816913081L48.35719233703613,7.707383816913081L48.26279233703613,8.49440781691308L51.372492337036135,8.49440781691308L51.18359233703613,10.06183781691308L48.04879233703613,10.06183781691308L47.97319233703613,10.65045781691308L51.10179233703613,10.65045781691308L50.89399233703613,12.19142781691308L47.778092337036135,12.19142781691308L47.70259233703614,12.799887816913081L50.81219233703614,12.799887816913081L50.604492337036135,14.34086781691308L41.43289233703614,14.34086781691308L41.64692233703613,12.799887816913081L44.74399233703613,12.799887816913081L44.81949233703613,12.19142781691308L41.72245233703613,12.19142781691308L41.93648233703613,10.65045781691308L45.01469233703613,10.65045781691308ZM36.54180233703613,14.72445781691308L34.433033337036136,14.72445781691308L34.68482233703613,12.799887816913081L36.81248233703613,12.799887816913081L37.37902233703613,8.52085781691308L37.14611233703613,7.687542816913081L39.90954233703613,7.687542816913081L39.22970233703613,12.799887816913081L41.06779233703613,12.799887816913081L40.81600233703613,14.72445781691308L38.95902233703613,14.72445781691308L37.93296233703613,22.15814781691308L35.80403233703613,22.428147816913082L36.54180233703613,14.72445781691308ZM40.274642337036134,21.42404781691308L38.68834233703613,21.42404781691308L39.097512337036136,15.041917816913081L40.740462337036135,15.041917816913081L40.274642337036134,21.42404781691308ZM34.72259233703613,15.041917816913081L36.233362337036134,15.041917816913081L35.01216233703613,21.42404781691308L33.50769233703613,21.42404781691308L34.72259233703613,15.041917816913081ZM41.93648233703613,8.49440781691308L41.08668233703613,12.37661781691308L39.50038233703613,12.37661781691308L40.331302337036135,8.49440781691308L41.93648233703613,8.49440781691308ZM36.81248233703613,8.52085781691308L36.642522337036134,12.37661781691308L35.11287233703613,12.37661781691308L35.26395233703613,8.52085781691308L36.81248233703613,8.52085781691308ZM44.00749233703613,16.78791781691308L47.29339233703613,16.78791781691308L47.394092337036135,16.040567816913082L44.10189233703613,16.040567816913082L44.00749233703613,16.78791781691308ZM43.71789233703613,18.90424781691308L47.00379233703613,18.90424781691308L47.098292337036135,18.150347816913083L43.81239233703613,18.150347816913083L43.71789233703613,18.90424781691308ZM61.998092337036134,8.05129381691308L61.41899233703613,9.98247781691308L62.82909233703613,9.98247781691308L63.04309233703613,8.434884816913081L62.40099233703613,7.667701816913081L66.07719233703614,7.667701816913081L65.76879233703613,9.98247781691308L68.33699233703614,9.98247781691308L68.11039233703613,11.68879781691308L65.53579233703613,11.68879781691308L65.28409233703613,13.646437816913082L68.22369233703614,13.646437816913082L67.99079233703614,15.372597816913082L66.15269233703614,15.372597816913082L65.94499233703613,16.93341781691308L67.41169233703613,16.93341781691308L68.26149233703613,16.15300781691308L67.83979233703613,19.248147816913082L62.690592337036136,19.248147816913082L63.212992337036134,15.372597816913082L62.09259233703614,15.372597816913082L60.487392337036134,19.248147816913082L57.54769233703613,19.248147816913082L59.152892337036135,15.372597816913082L57.705092337036135,15.372597816913082L57.937992337036135,13.646437816913082L62.34439233703613,13.646437816913082L62.59619233703613,11.68879781691308L60.91539233703613,11.68879781691308L60.64479233703614,12.687457816913081L58.07019233703613,12.687457816913081L59.23469233703614,8.719267816913082L58.69339233703613,8.05129381691308L61.998092337036134,8.05129381691308ZM51.87859233703613,22.15814781691308L53.04059233703613,19.99554781691308L53.972192337036134,13.03797781691308L53.235692337036134,13.03797781691308L53.48749233703613,11.106797816913081L57.52879233703614,11.106797816913081L56.464992337036136,19.188647816913083L59.11509233703613,19.99554781691308L68.11039233703613,19.99554781691308L67.85859233703613,21.92014781691308L57.566592337036134,21.92014781691308L55.67179233703614,21.33144781691308L55.36339233703613,21.92014781691308L51.87859233703613,22.15814781691308ZM56.85529233703613,8.05129381691308L57.64839233703613,10.36606781691308L54.70869233703613,10.36606781691308L53.91559233703613,8.05129381691308L56.85529233703613,8.05129381691308ZM98.10529233703613,9.01688781691308L99.61609233703614,9.01688781691308L100.03789233703613,8.044679816913082L99.40209233703614,7.495747816913081L103.24819233703613,7.495747816913081L102.49909233703613,9.01688781691308L104.12319233703613,9.01688781691308L103.58189233703614,13.29590781691308L99.90569233703613,13.29590781691308L99.76719233703614,14.30779781691308L103.92809233703613,14.30779781691308L103.48109233703613,17.601347816913083Q103.38669233703614,18.19004781691308,102.95869233703613,18.58684781691308Q102.53689233703614,18.98364781691308,101.97669233703613,18.98364781691308L99.88679233703613,18.98364781691308L100.77439233703613,17.82624781691308L101.02619233703614,15.974437816913081L99.55949233703613,15.974437816913081L99.07479233703613,19.57224781691308L95.92099233703613,19.57224781691308L96.36799233703613,16.29850781691308L94.64319233703614,19.268047816913082L91.95529233703613,19.268047816913082L93.84999233703613,15.974437816913081L92.76729233703614,15.974437816913081L93.32759233703612,11.83429781691308L96.96599233703614,11.83429781691308L97.07929233703612,10.683517816913081L93.44719233703614,10.683517816913081L93.68009233703614,9.01688781691308L95.24749233703614,9.01688781691308L95.01459233703613,8.044679816913082L94.37249233703614,7.495747816913081L97.83469233703613,7.495747816913081L98.10529233703613,9.01688781691308ZM87.16489233703614,21.92014781691308L88.16579233703612,19.91614781691308L89.07849233703612,13.071047816913081L88.34209233703614,13.071047816913081L88.59379233703613,11.05388781691308L92.49659233703613,11.05388781691308L91.39499233703614,19.387047816913082L93.83109233703613,19.99554781691308L103.21049233703613,19.99554781691308L106.50769233703613,21.984047816913083L92.67289233703613,21.92014781691308L90.62079233703614,21.33144781691308L90.33119233703613,21.92014781691308L87.16489233703614,21.92014781691308ZM91.95529233703613,7.859498816913081L92.61619233703613,10.17426781691308L89.67649233703614,10.17426781691308L89.01559233703614,7.859498816913081L91.95529233703613,7.859498816913081ZM95.53709233703614,14.30779781691308L96.61979233703613,14.30779781691308L96.75199233703614,13.29590781691308L95.66919233703612,13.29590781691308L95.53709233703614,14.30779781691308ZM100.23299233703614,10.683517816913081L100.11969233703613,11.83429781691308L101.24019233703613,11.83429781691308L101.35349233703613,10.683517816913081L100.23299233703614,10.683517816913081Z" fill="#1A1A1A" fill-opacity="1"/></g><g><path d="M78.87461890441895,15.41894174873109L75.25508890441894,15.41894174873109L75.87198890441894,10.868761748731089L79.49154890441895,10.868761748731089L79.56704890441894,10.39919174873109L75.89715890441894,10.39919174873109L76.12377890441894,8.65319174873109L79.79994890441894,8.65319174873109L79.91834890441895,8.778021748731089L79.81884890441894,8.65327174873109L82.00314890441895,6.99999412563109L82.93474890441894,8.65327174873109L86.60464890441895,8.65319174873109L86.37804890441895,10.39919174873109L82.70184890441894,10.39919174873109L82.62634890441895,10.868761748731089L86.23954890441894,10.868761748731089L86.01074890441895,12.55662174873109L85.62264890441895,15.41894174873109L82.00314890441895,15.41894174873109L81.87474890441895,16.39457174873109L81.46184890441894,19.532641748731088L78.33326890441894,19.532641748731088L78.87461890441895,15.41894174873109ZM71.96922890441894,10.56445174873109L71.37119890441895,8.14393174873109L74.42420890441895,8.14385174873109L74.89562890441894,10.05226174873109L75.02214890441894,10.56445174873109L71.96922890441894,10.56445174873109ZM72.68678890441895,21.900341748731087L69.28254890441895,23.00004174873109L70.42064890441894,19.90304174873109L71.33338890441894,13.03811174873109L70.55913890441894,13.03803174873109L70.62882890441894,12.50350174873109L70.81092890441894,11.106851748731088L74.90883890441894,11.106851748731088L74.11741890441894,16.99887174873109L73.80727890441895,19.30774174873109L76.30909890441895,19.98774174873109L76.33779890441895,19.99554174873109L85.52194890441895,19.99554174873109L85.29664890441894,21.717541748731087L85.27014890441895,21.92014174873109L74.98440890441894,21.92014174873109L73.03300890441895,21.33154174873109L72.68678890441895,21.900341748731087ZM79.08235890441895,13.89765174873109L78.10037890441895,13.897571748731089L78.19557890441894,13.20621174873109L78.31438890441895,12.34345174873109L79.27749890441895,12.34345174873109L79.16897890441895,13.207721748731089L79.08235890441895,13.89765174873109ZM83.20544890441894,13.89765174873109L82.21724890441894,13.897571748731089L82.30444890441895,13.20283174873109L82.41234890441895,12.34345174873109L83.41954890441895,12.34345174873109L83.20544890441894,13.89765174873109ZM77.05540890441894,19.14904174873109L74.42416890441895,19.14904174873109L75.77594890441894,15.92941174873109L75.81529890441894,15.835681748731089L78.38991890441895,15.83560174873109L77.05540890441894,19.14904174873109ZM82.72914890441895,18.79704174873109L82.45004890441895,15.83560174873109L84.98064890441894,15.83560174873109L85.14424890441894,17.441241748731088L85.31424890441895,19.10934174873109L82.75854890441894,19.10934174873109L82.72914890441895,18.79704174873109Z" fill-rule="evenodd" fill="url(#master_svg4_71_04219)" fill-opacity="1"/></g></g></g></g><g style="opacity:0.699999988079071;"><g><g><g><g style="opacity:0;"></g><g><path d="M318.1561712890625,39.24946569562669C318.1561712890625,39.24946569562669,314.6498712890625,40.07821569562669,314.6498712890625,40.07821569562669C313.8636712890625,40.26942569562669,313.24737128906247,40.86442569562669,313.0773712890625,41.65072569562669C313.0773712890625,41.65072569562669,312.3336712890625,44.77442569562669,312.3336712890625,44.77442569562669C311.9298912890625,46.47442569562669,309.7624012890625,47.005725695626694,308.6361512890625,45.66692569562669C308.6361512890625,45.66692569562669,302.2823962890625,38.35696569562669,302.2823962890625,38.35696569562669C301.7723962890625,37.761965695626685,302.0486466890625,36.82696569562669,302.8136462890625,36.635715695626686C306.5748912890625,35.721965695626686,309.9536412890625,33.61821569562669,312.4398712890625,30.621965695626688C312.8436712890625,30.13321569562669,313.5661712890625,30.06946569562669,314.0123712890625,30.51571569562669C314.0123712890625,30.51571569562669,318.7298712890625,35.23321569562669,318.7298712890625,35.23321569562669C320.3448712890625,36.84821569562669,319.7711712890625,38.86696569562669,318.1561712890625,39.24946569562669Z" fill="#FFFFFF" fill-opacity="0.699999988079071"/></g><g><path d="M278.7376063671875,39.24934362531419C278.7376063671875,39.24934362531419,282.2438563671875,40.07809362531419,282.2438563671875,40.07809362531419C283.0301063671875,40.26930362531419,283.6463563671875,40.86430362531419,283.8163563671875,41.65060362531419C283.8163563671875,41.65060362531419,284.5601063671875,44.77430362531419,284.5601063671875,44.77430362531419C284.9638563671875,46.47430362531419,287.1313563671875,47.005603625314194,288.2576263671875,45.66680362531419C288.2576263671875,45.66680362531419,294.61132636718753,38.35684362531419,294.61132636718753,38.35684362531419C295.1213263671875,37.761843625314185,294.8451263671875,36.82684362531419,294.0801263671875,36.635593625314186C290.3188263671875,35.721843625314186,286.9401063671875,33.61809362531419,284.4538563671875,30.621843625314188C284.0500963671875,30.13309362531419,283.3276063671875,30.06934362531419,282.8813563671875,30.51559362531419C282.8813563671875,30.51559362531419,278.1638513671875,35.23309362531419,278.1638513671875,35.23309362531419C276.5488513671875,36.84809362531419,277.1226017671875,38.86684362531419,278.7376063671875,39.24934362531419Z" fill="#FFFFFF" fill-opacity="0.699999988079071"/></g><g><path d="M298.5,4.250481945626689C290.27625,4.250481945626689,283.625,10.90173194562669,283.625,19.12548194562669C283.625,22.206681945626688,284.53875,25.032981945626688,286.11125,27.39178194562669C288.40625,30.79178194562669,292.04,33.192981945626684,296.2687,33.809281945626694C296.9913,33.93678194562669,297.735,34.00048194562669,298.5,34.00048194562669C299.265,34.00048194562669,300.0088,33.93678194562669,300.7313,33.809281945626694C304.96,33.192981945626684,308.5938,30.79178194562669,310.8888,27.39178194562669C312.4613,25.032981945626688,313.375,22.206681945626688,313.375,19.12548194562669C313.375,10.90173194562669,306.7237,4.250481945626689,298.5,4.250481945626689ZM305.0025,18.657981945626688C305.0025,18.657981945626688,303.2387,20.421681945626688,303.2387,20.421681945626688C302.9412,20.719181945626687,302.7712,21.29298194562669,302.8775,21.71798194562669C302.8775,21.71798194562669,303.3875,23.906681945626687,303.3875,23.906681945626687C303.7913,25.62798194562669,302.8775,26.30798194562669,301.3475,25.394181945626688C301.3475,25.394181945626688,299.2225,24.14048194562669,299.2225,24.14048194562669C298.84,23.906681945626687,298.2025,23.906681945626687,297.82,24.14048194562669C297.82,24.14048194562669,295.695,25.394181945626688,295.695,25.394181945626688C294.165,26.28668194562669,293.25125,25.62798194562669,293.655,23.906681945626687C293.655,23.906681945626687,294.165,21.71798194562669,294.165,21.71798194562669C294.25,21.31428194562669,294.1012,20.719181945626687,293.8038,20.421681945626688C293.8038,20.421681945626688,291.9975,18.657981945626688,291.9975,18.657981945626688C290.95625,17.61678194562669,291.29625,16.575481945626688,292.74125,16.34178194562669C292.74125,16.34178194562669,295.015,15.959281945626689,295.015,15.959281945626689C295.3975,15.895481945626688,295.8438,15.555481945626688,296.0138,15.215481945626689C296.0138,15.215481945626689,297.2675,12.707981945626688,297.2675,12.707981945626688C297.9475,11.347981945626689,299.0525,11.347981945626689,299.7325,12.707981945626688C299.7325,12.707981945626688,300.9862,15.215481945626689,300.9862,15.215481945626689C301.1562,15.555481945626688,301.6025,15.895481945626688,302.0062,15.959281945626689C302.0062,15.959281945626689,304.28,16.34178194562669,304.28,16.34178194562669C305.7038,16.575481945626688,306.0438,17.61678194562669,305.0025,18.657981945626688Z" fill="#FFFFFF" fill-opacity="0.699999988079071"/></g></g></g></g></g></g></svg>